<svg id="Capa_1" data-name="Capa 1" xmlns="http://www.w3.org/2000/svg" viewBox="0 0 74.35 31.43"><defs><style>.cls-1{fill:#fff;}</style></defs><title>logo-white</title><path class="cls-1" d="M58.28,16.92l0,.09a7.76,7.76,0,0,1-3.93,5.63,17.6,17.6,0,0,1-8.53,1.77q-5.22,0-8-2.21C36,20.73,35.39,18.65,36,16l1.47-6.85a9.49,9.49,0,0,1,4.42-6.32A16.59,16.59,0,0,1,50.65.67q5.3,0,7.93,1.86t1.75,5.56l0,.08H54c.32-1.54.17-2.6-.45-3.16s-1.83-.84-3.64-.84A6,6,0,0,0,46,5.4a6.2,6.2,0,0,0-2.06,3.7L42.45,16c-.38,1.74-.23,3,.47,3.78s1.93,1.17,3.71,1.17A6.31,6.31,0,0,0,50.25,20,5,5,0,0,0,52,16.92Z" transform="translate(-35.56 -0.67)"/><path class="cls-1" d="M76.16,19.41H67.79L59.92,32.1H53.17L72.55,1.33h6.71L83.74,24.4H77Zm-6.28-3.52h5.7L74.39,8.6h-.14Z" transform="translate(-35.56 -0.67)"/><path class="cls-1" d="M102.52,18.56a2.28,2.28,0,0,0-.69-2.39,13.28,13.28,0,0,0-3.89-1.78,21.74,21.74,0,0,1-7.42-3.07,4.26,4.26,0,0,1-1.75-4.66A6.47,6.47,0,0,1,92.54,2.3,16.89,16.89,0,0,1,100.17.71q4.92,0,7.64,1.89a4.46,4.46,0,0,1,1.92,5.16l-.07.1h-6.27a2.6,2.6,0,0,0-.77-2.64,4.67,4.67,0,0,0-3.23-1,5.32,5.32,0,0,0-2.71.71,2.57,2.57,0,0,0-1.4,1.7,2,2,0,0,0,.77,2.28,18.58,18.58,0,0,0,4.61,1.83,18.16,18.16,0,0,1,6.8,3A4.51,4.51,0,0,1,109,18.53a6.37,6.37,0,0,1-3.75,4.4,17.37,17.37,0,0,1-7.69,1.52,17.12,17.12,0,0,1-8-1.71,4.27,4.27,0,0,1-2.36-5.31l0-.09h6.27a2.29,2.29,0,0,0,1.08,2.81,7.93,7.93,0,0,0,3.77.82,5.51,5.51,0,0,0,2.73-.69A2.81,2.81,0,0,0,102.52,18.56Z" transform="translate(-35.56 -0.67)"/><polygon class="cls-1" points="20.94 24.82 18.3 28.83 0 28.83 1.76 24.82 20.94 24.82"/><polygon class="cls-1" points="29.41 24.82 26.94 28.83 73.77 28.83 71.77 24.82 29.41 24.82"/></svg>