<?xml version="1.0" encoding="utf-8"?>
<!-- Generator: Adobe Illustrator 23.0.5, SVG Export Plug-In . SVG Version: 6.00 Build 0)  -->
<svg version="1.1" id="Capa_1" xmlns="http://www.w3.org/2000/svg" xmlns:xlink="http://www.w3.org/1999/xlink" x="0px" y="0px"
	 viewBox="0 0 154.1 32.1" style="enable-background:new 0 0 154.1 32.1;" xml:space="preserve">
<style type="text/css">
	.st0{display:none;}
	.st1{display:inline;fill:#FFFFFF;}
	.st2{display:inline;fill:#E31A13;}
	.st3{display:inline;fill:#E51610;}
	.st4{display:inline;fill:#E90E0A;}
	.st5{display:inline;fill:#EF0202;}
	.st6{display:inline;fill:#DD261C;}
	.st7{display:inline;fill:#ED0604;}
	.st8{display:inline;fill:#E11E16;}
	.st9{display:inline;fill:#EB0A07;}
	.st10{display:inline;fill:#E33E36;}
	.st11{display:inline;fill:#E53A33;}
	.st12{display:inline;fill:#DF2219;}
	.st13{display:inline;fill:#E7120D;}
	.st14{display:inline;fill:#F16866;}
	.st15{display:inline;fill:url(#SVGID_1_);}
	.st16{display:inline;fill:url(#SVGID_2_);}
	.st17{display:inline;fill:url(#SVGID_3_);}
	.st18{display:inline;fill:url(#SVGID_4_);}
	.st19{display:inline;fill:url(#SVGID_5_);}
	.st20{display:inline;fill:url(#SVGID_6_);}
	.st21{display:inline;fill:url(#SVGID_7_);}
	.st22{display:inline;fill:url(#SVGID_8_);}
	.st23{display:inline;fill:url(#SVGID_9_);}
	.st24{display:inline;fill:url(#SVGID_10_);}
	.st25{display:inline;fill:url(#SVGID_11_);}
	.st26{display:inline;fill:url(#SVGID_12_);}
	.st27{display:inline;fill:url(#SVGID_13_);}
	.st28{display:inline;fill:url(#SVGID_14_);}
	.st29{display:inline;fill:url(#SVGID_15_);}
	.st30{fill:#EAC800;}
</style>
<title>logo</title>
<image style="display:none;overflow:visible;enable-background:new    ;" width="650" height="138" xlink:href="E3FC0C7C.jpg"  transform="matrix(0.2376 0 0 0.2376 -0.1742 -0.3832)">
</image>
<g class="st0">
	<rect x="138.4" y="28.7" class="st1" width="15.4" height="3.2"/>
	<rect x="123" y="28.7" class="st1" width="15.4" height="3.2"/>
	<rect x="107.6" y="28.7" class="st1" width="15.4" height="3.2"/>
	<rect x="92.2" y="28.7" class="st2" width="15.4" height="3.2"/>
	<rect x="76.8" y="28.7" class="st3" width="15.4" height="3.2"/>
	<rect x="61.4" y="28.7" class="st1" width="15.4" height="3.2"/>
	<rect x="46" y="28.7" class="st4" width="15.4" height="3.2"/>
	<rect x="30.6" y="28.7" class="st1" width="15.4" height="3.2"/>
	<rect x="15.2" y="28.7" class="st1" width="15.4" height="3.2"/>
	<rect x="-0.2" y="28.7" class="st5" width="15.4" height="3.2"/>
	<rect x="138.4" y="25.5" class="st6" width="15.4" height="3.2"/>
	<rect x="123" y="25.5" class="st1" width="15.4" height="3.2"/>
	<rect x="107.6" y="25.5" class="st1" width="15.4" height="3.2"/>
	<rect x="92.2" y="25.5" class="st2" width="15.4" height="3.2"/>
	<rect x="76.8" y="25.5" class="st3" width="15.4" height="3.2"/>
	<rect x="61.4" y="25.5" class="st1" width="15.4" height="3.2"/>
	<rect x="46" y="25.5" class="st4" width="15.4" height="3.2"/>
	<rect x="30.6" y="25.5" class="st1" width="15.4" height="3.2"/>
	<rect x="15.2" y="25.5" class="st7" width="15.4" height="3.2"/>
	<rect x="-0.2" y="25.5" class="st5" width="15.4" height="3.2"/>
	<rect x="138.4" y="22.3" class="st6" width="15.4" height="3.2"/>
	<rect x="123" y="22.3" class="st1" width="15.4" height="3.2"/>
	<rect x="107.6" y="22.3" class="st1" width="15.4" height="3.2"/>
	<rect x="92.2" y="22.3" class="st2" width="15.4" height="3.2"/>
	<rect x="76.8" y="22.3" class="st3" width="15.4" height="3.2"/>
	<rect x="61.4" y="22.3" class="st1" width="15.4" height="3.2"/>
	<rect x="46" y="22.3" class="st4" width="15.4" height="3.2"/>
	<rect x="30.6" y="22.3" class="st1" width="15.4" height="3.2"/>
	<rect x="15.2" y="22.3" class="st7" width="15.4" height="3.2"/>
	<rect x="-0.2" y="22.3" class="st5" width="15.4" height="3.2"/>
	<rect x="138.4" y="19.1" class="st6" width="15.4" height="3.2"/>
	<rect x="123" y="19.1" class="st1" width="15.4" height="3.2"/>
	<rect x="107.6" y="19.1" class="st8" width="15.4" height="3.2"/>
	<rect x="92.2" y="19.1" class="st1" width="15.4" height="3.2"/>
	<rect x="76.8" y="19.1" class="st3" width="15.4" height="3.2"/>
	<rect x="61.4" y="19.1" class="st1" width="15.4" height="3.2"/>
	<rect x="46" y="19.1" class="st4" width="15.4" height="3.2"/>
	<rect x="30.6" y="19.1" class="st9" width="15.4" height="3.2"/>
	<rect x="15.2" y="19.1" class="st1" width="15.4" height="3.2"/>
	<rect x="-0.2" y="19.1" class="st5" width="15.4" height="3.2"/>
	<rect x="138.4" y="15.9" class="st6" width="15.4" height="3.2"/>
	<rect x="123" y="15.9" class="st1" width="15.4" height="3.2"/>
	<rect x="107.6" y="15.9" class="st8" width="15.4" height="3.2"/>
	<rect x="92.2" y="15.9" class="st1" width="15.4" height="3.2"/>
	<rect x="76.8" y="15.9" class="st3" width="15.4" height="3.2"/>
	<rect x="61.4" y="15.9" class="st1" width="15.4" height="3.2"/>
	<rect x="46" y="15.9" class="st1" width="15.4" height="3.2"/>
	<rect x="30.6" y="15.9" class="st9" width="15.4" height="3.2"/>
	<rect x="15.2" y="15.9" class="st1" width="15.4" height="3.2"/>
	<rect x="-0.2" y="15.9" class="st5" width="15.4" height="3.2"/>
	<rect x="138.4" y="12.7" class="st6" width="15.4" height="3.2"/>
	<rect x="123" y="12.7" class="st10" width="15.4" height="3.2"/>
	<rect x="107.6" y="12.7" class="st11" width="15.4" height="3.2"/>
	<rect x="92.2" y="12.7" class="st1" width="15.4" height="3.2"/>
	<rect x="76.8" y="12.7" class="st3" width="15.4" height="3.2"/>
	<rect x="61.4" y="12.7" class="st1" width="15.4" height="3.2"/>
	<rect x="46" y="12.7" class="st1" width="15.4" height="3.2"/>
	<rect x="30.6" y="12.7" class="st9" width="15.4" height="3.2"/>
	<rect x="15.2" y="12.7" class="st1" width="15.4" height="3.2"/>
	<rect x="-0.2" y="12.7" class="st5" width="15.4" height="3.2"/>
	<rect x="138.4" y="9.5" class="st6" width="15.4" height="3.2"/>
	<rect x="123" y="9.5" class="st12" width="15.4" height="3.2"/>
	<rect x="107.6" y="9.5" class="st1" width="15.4" height="3.2"/>
	<rect x="92.2" y="9.5" class="st1" width="15.4" height="3.2"/>
	<rect x="76.8" y="9.5" class="st3" width="15.4" height="3.2"/>
	<rect x="61.4" y="9.5" class="st1" width="15.4" height="3.2"/>
	<rect x="46" y="9.5" class="st4" width="15.4" height="3.2"/>
	<rect x="30.6" y="9.5" class="st1" width="15.4" height="3.2"/>
	<rect x="15.2" y="9.5" class="st1" width="15.4" height="3.2"/>
	<rect x="-0.2" y="9.5" class="st5" width="15.4" height="3.2"/>
	<rect x="138.4" y="6.3" class="st6" width="15.4" height="3.2"/>
	<rect x="123" y="6.3" class="st12" width="15.4" height="3.2"/>
	<rect x="107.6" y="6.3" class="st1" width="15.4" height="3.2"/>
	<rect x="92.2" y="6.3" class="st1" width="15.4" height="3.2"/>
	<rect x="76.8" y="6.3" class="st3" width="15.4" height="3.2"/>
	<rect x="61.4" y="6.3" class="st1" width="15.4" height="3.2"/>
	<rect x="46" y="6.3" class="st4" width="15.4" height="3.2"/>
	<rect x="30.6" y="6.3" class="st1" width="15.4" height="3.2"/>
	<rect x="15.2" y="6.3" class="st1" width="15.4" height="3.2"/>
	<rect x="-0.2" y="6.3" class="st5" width="15.4" height="3.2"/>
	<rect x="138.4" y="3.1" class="st6" width="15.4" height="3.2"/>
	<rect x="123" y="3.1" class="st1" width="15.4" height="3.2"/>
	<rect x="107.6" y="3.1" class="st1" width="15.4" height="3.2"/>
	<rect x="92.2" y="3.1" class="st1" width="15.4" height="3.2"/>
	<rect x="76.8" y="3.1" class="st3" width="15.4" height="3.2"/>
	<rect x="61.4" y="3.1" class="st13" width="15.4" height="3.2"/>
	<rect x="46" y="3.1" class="st14" width="15.4" height="3.2"/>
	<rect x="30.6" y="3.1" class="st1" width="15.4" height="3.2"/>
	<rect x="15.2" y="3.1" class="st1" width="15.4" height="3.2"/>
	<rect x="-0.2" y="3.1" class="st5" width="15.4" height="3.2"/>
	<rect x="138.4" y="-0.1" class="st6" width="15.4" height="3.2"/>
	<rect x="123" y="-0.1" class="st1" width="15.4" height="3.2"/>
	<rect x="107.6" y="-0.1" class="st1" width="15.4" height="3.2"/>
	<rect x="92.2" y="-0.1" class="st1" width="15.4" height="3.2"/>
	<rect x="76.8" y="-0.1" class="st3" width="15.4" height="3.2"/>
	<rect x="61.4" y="-0.1" class="st13" width="15.4" height="3.2"/>
	<rect x="46" y="-0.1" class="st1" width="15.4" height="3.2"/>
	<rect x="30.6" y="-0.1" class="st1" width="15.4" height="3.2"/>
	<rect x="15.2" y="-0.1" class="st1" width="15.4" height="3.2"/>
	<rect x="-0.2" y="-0.1" class="st1" width="15.4" height="3.2"/>
</g>
<g class="st0">
	
		<linearGradient id="SVGID_1_" gradientUnits="userSpaceOnUse" x1="23.2632" y1="26.85" x2="32.3422" y2="26.85" gradientTransform="matrix(1 0 0 -1 0 34)">
		<stop  offset="0" style="stop-color:#F00000"/>
		<stop  offset="1" style="stop-color:#DC281E"/>
	</linearGradient>
	<path class="st15" d="M32.3,9.5L32.3,9.5c0,1.4-0.3,2.4-1.1,3c-0.8,0.7-1.8,1-3.2,1c-1.4,0-2.6-0.4-3.4-1.2s-1.3-1.9-1.3-3.3V5.3
		c0-1.4,0.4-2.6,1.2-3.3c0.8-0.8,1.9-1.2,3.3-1.2c1.5,0,2.6,0.3,3.4,1s1.2,1.7,1.1,3v0.1h-2.5c0-0.8-0.2-1.3-0.5-1.7
		c-0.3-0.3-0.8-0.5-1.5-0.5s-1.1,0.2-1.5,0.7c-0.3,0.4-0.5,1.1-0.5,2V9c0,0.9,0.2,1.6,0.5,2c0.4,0.4,0.9,0.7,1.6,0.7
		c0.6,0,1.1-0.2,1.4-0.5s0.4-0.9,0.4-1.7H32.3z"/>
	
		<linearGradient id="SVGID_2_" gradientUnits="userSpaceOnUse" x1="33.7429" y1="26.85" x2="43.512" y2="26.85" gradientTransform="matrix(1 0 0 -1 0 34)">
		<stop  offset="0" style="stop-color:#F00000"/>
		<stop  offset="1" style="stop-color:#DC281E"/>
	</linearGradient>
	<path class="st16" d="M43.5,8.9c0,1.5-0.4,2.6-1.3,3.4c-0.9,0.8-2.1,1.2-3.6,1.2s-2.7-0.4-3.5-1.2c-0.9-0.8-1.3-2-1.3-3.4V5.4
		c0-1.5,0.4-2.6,1.3-3.4c0.9-0.8,2.1-1.2,3.5-1.2c1.5,0,2.7,0.4,3.6,1.2c0.9,0.8,1.3,2,1.3,3.4V8.9z M40.9,5.4c0-0.9-0.2-1.6-0.6-2
		c-0.4-0.5-1-0.7-1.7-0.7c-0.8,0-1.3,0.2-1.7,0.7s-0.6,1.1-0.6,2v3.5c0,0.9,0.2,1.6,0.6,2.1c0.4,0.5,1,0.7,1.7,0.7
		c0.8,0,1.3-0.2,1.7-0.7s0.6-1.1,0.6-2.1V5.4z"/>
	
		<linearGradient id="SVGID_3_" gradientUnits="userSpaceOnUse" x1="45.3" y1="26.9" x2="57.152" y2="26.9" gradientTransform="matrix(1 0 0 -1 0 34)">
		<stop  offset="0" style="stop-color:#F00000"/>
		<stop  offset="1" style="stop-color:#DC281E"/>
	</linearGradient>
	<path class="st17" d="M51.2,10.1L51.2,10.1l2.6-9.2h3.4v12.4h-2.6V5.5h-0.1l-2.4,7.8h-1.7L48,5.6h-0.1v7.7h-2.6V0.9h3.4L51.2,10.1z
		"/>
	
		<linearGradient id="SVGID_4_" gradientUnits="userSpaceOnUse" x1="59.2181" y1="26.9" x2="68.0841" y2="26.9" gradientTransform="matrix(1 0 0 -1 0 34)">
		<stop  offset="0" style="stop-color:#F00000"/>
		<stop  offset="1" style="stop-color:#DC281E"/>
	</linearGradient>
	<path class="st18" d="M61.8,8.8v4.5h-2.6V0.9h4.5c1.3,0,2.4,0.4,3.2,1.1s1.2,1.7,1.2,2.9S67.7,7,66.9,7.8c-0.8,0.7-1.9,1.1-3.2,1.1
		h-1.9V8.8z M61.8,7h1.9c0.6,0,1-0.2,1.3-0.6s0.5-0.9,0.5-1.5S65.3,3.8,65,3.4s-0.7-0.6-1.3-0.6h-1.9V7z"/>
	
		<linearGradient id="SVGID_5_" gradientUnits="userSpaceOnUse" x1="69.7807" y1="26.85" x2="78.7757" y2="26.85" gradientTransform="matrix(1 0 0 -1 0 34)">
		<stop  offset="0" style="stop-color:#F00000"/>
		<stop  offset="1" style="stop-color:#DC281E"/>
	</linearGradient>
	<path class="st19" d="M72.4,8.3v5h-2.6V0.9h4c1.3,0,2.4,0.3,3.1,1C77.7,2.5,78,3.4,78,4.6c0,0.6-0.2,1.2-0.5,1.7s-0.8,0.8-1.4,1.1
		c0.7,0.2,1.2,0.6,1.5,1.1s0.5,1.1,0.5,1.9v0.9c0,0.3,0,0.7,0.1,1.1c0.1,0.4,0.2,0.7,0.5,0.8v0.2H76c-0.2-0.2-0.4-0.5-0.4-0.9
		c-0.1-0.4-0.1-0.8-0.1-1.2v-0.9c0-0.6-0.1-1.1-0.4-1.5c-0.3-0.3-0.7-0.5-1.2-0.5h-1.5V8.3z M72.4,6.5h1.4c0.6,0,1-0.2,1.3-0.5
		s0.4-0.7,0.4-1.3s-0.1-1-0.4-1.4c-0.3-0.3-0.7-0.5-1.3-0.5h-1.4V6.5z"/>
	
		<linearGradient id="SVGID_6_" gradientUnits="userSpaceOnUse" x1="79.3664" y1="26.9" x2="89.6664" y2="26.9" gradientTransform="matrix(1 0 0 -1 0 34)">
		<stop  offset="0" style="stop-color:#F00000"/>
		<stop  offset="1" style="stop-color:#DC281E"/>
	</linearGradient>
	<path class="st20" d="M86.2,10.6h-3.4L82,13.3h-2.7l3.8-12.4h2.7l3.8,12.4H87L86.2,10.6z M83.4,8.7h2.3l-1.1-3.9h-0.1L83.4,8.7z"/>
	
		<linearGradient id="SVGID_7_" gradientUnits="userSpaceOnUse" x1="90.7309" y1="26.9" x2="102.5829" y2="26.9" gradientTransform="matrix(1 0 0 -1 0 34)">
		<stop  offset="0" style="stop-color:#F00000"/>
		<stop  offset="1" style="stop-color:#DC281E"/>
	</linearGradient>
	<path class="st21" d="M96.6,10.1L96.6,10.1l2.6-9.2h3.4v12.4H100V5.5h-0.1l-2.4,7.8h-1.7l-2.4-7.7h-0.1v7.7h-2.6V0.9h3.4L96.6,10.1
		z"/>
	
		<linearGradient id="SVGID_8_" gradientUnits="userSpaceOnUse" x1="104.3902" y1="26.85" x2="114.1593" y2="26.85" gradientTransform="matrix(1 0 0 -1 0 34)">
		<stop  offset="0" style="stop-color:#F00000"/>
		<stop  offset="1" style="stop-color:#DC281E"/>
	</linearGradient>
	<path class="st22" d="M114.2,8.9c0,1.5-0.4,2.6-1.3,3.4c-0.9,0.8-2.1,1.2-3.6,1.2s-2.7-0.4-3.5-1.2c-0.9-0.8-1.3-2-1.3-3.4V5.4
		c0-1.5,0.4-2.6,1.3-3.4s2.1-1.2,3.5-1.2c1.5,0,2.7,0.4,3.6,1.2s1.3,2,1.3,3.4V8.9z M111.6,5.4c0-0.9-0.2-1.6-0.6-2
		c-0.4-0.5-1-0.7-1.7-0.7c-0.8,0-1.3,0.2-1.7,0.7c-0.4,0.5-0.6,1.1-0.6,2v3.5c0,0.9,0.2,1.6,0.6,2.1s1,0.7,1.7,0.7
		c0.8,0,1.3-0.2,1.7-0.7c0.4-0.5,0.6-1.1,0.6-2.1V5.4z"/>
	
		<linearGradient id="SVGID_9_" gradientUnits="userSpaceOnUse" x1="115.6793" y1="27" x2="124.5284" y2="27" gradientTransform="matrix(1 0 0 -1 0 34)">
		<stop  offset="0" style="stop-color:#F00000"/>
		<stop  offset="1" style="stop-color:#DC281E"/>
	</linearGradient>
	<path class="st23" d="M121.9,10.1c0-0.5-0.1-0.9-0.4-1.2s-0.8-0.6-1.5-0.8c-1.4-0.4-2.4-1-3.1-1.5c-0.7-0.6-1-1.4-1-2.4
		s0.4-1.8,1.2-2.5c0.8-0.6,1.8-1,3-1c1.3,0,2.4,0.3,3.1,1c0.8,0.7,1.2,1.6,1.2,2.7v0.1h-2.5c0-0.6-0.2-1.1-0.5-1.5
		c-0.3-0.3-0.8-0.5-1.3-0.5s-0.9,0.2-1.2,0.5c-0.3,0.3-0.4,0.7-0.4,1.1s0.2,0.8,0.5,1c0.3,0.3,0.9,0.6,1.6,0.9
		c1.3,0.4,2.3,0.9,2.9,1.5c0.7,0.6,1,1.4,1,2.4c0,1.1-0.4,1.9-1.2,2.5c-0.8,0.6-1.8,0.9-3.1,0.9c-1.3,0-2.4-0.3-3.3-1
		s-1.3-1.7-1.3-3V9.2h2.5c0,0.8,0.2,1.3,0.5,1.7c0.3,0.3,0.8,0.5,1.5,0.5c0.6,0,1-0.1,1.3-0.4C121.8,10.9,121.9,10.6,121.9,10.1z"/>
	
		<linearGradient id="SVGID_10_" gradientUnits="userSpaceOnUse" x1="40.63" y1="8.5" x2="49.4591" y2="8.5" gradientTransform="matrix(1 0 0 -1 0 34)">
		<stop  offset="0" style="stop-color:#F00000"/>
		<stop  offset="1" style="stop-color:#DC281E"/>
	</linearGradient>
	<path class="st24" d="M49.5,21.2h-3.2v10.5h-2.6V21.2h-3.1v-1.9h8.8L49.5,21.2L49.5,21.2z"/>
	
		<linearGradient id="SVGID_11_" gradientUnits="userSpaceOnUse" x1="50.6387" y1="8.4" x2="60.0945" y2="8.4" gradientTransform="matrix(1 0 0 -1 0 34)">
		<stop  offset="0" style="stop-color:#F00000"/>
		<stop  offset="1" style="stop-color:#DC281E"/>
	</linearGradient>
	<path class="st25" d="M60.1,19.3v8.1c0,1.4-0.4,2.5-1.3,3.3c-0.9,0.8-2,1.2-3.4,1.2s-2.5-0.4-3.4-1.2c-0.9-0.8-1.3-1.9-1.3-3.3
		v-8.1h2.6v8.1c0,0.8,0.2,1.5,0.6,1.9c0.4,0.4,0.9,0.7,1.6,0.7c0.7,0,1.2-0.2,1.6-0.7c0.4-0.4,0.6-1.1,0.6-1.9v-8.1H60.1z"/>
	
		<linearGradient id="SVGID_12_" gradientUnits="userSpaceOnUse" x1="65.3662" y1="8.5" x2="75.6662" y2="8.5" gradientTransform="matrix(1 0 0 -1 0 34)">
		<stop  offset="0" style="stop-color:#F00000"/>
		<stop  offset="1" style="stop-color:#DC281E"/>
	</linearGradient>
	<path class="st26" d="M72.2,29h-3.4L68,31.7h-2.7l3.8-12.4h2.7l3.8,12.4H73L72.2,29z M69.4,27.2h2.3l-1.1-3.9h-0.1L69.4,27.2z"/>
	
		<linearGradient id="SVGID_13_" gradientUnits="userSpaceOnUse" x1="76.4993" y1="8.4" x2="85.9551" y2="8.4" gradientTransform="matrix(1 0 0 -1 0 34)">
		<stop  offset="0" style="stop-color:#F00000"/>
		<stop  offset="1" style="stop-color:#DC281E"/>
	</linearGradient>
	<path class="st27" d="M86,19.3v8.1c0,1.4-0.4,2.5-1.3,3.3s-2,1.2-3.4,1.2s-2.5-0.4-3.4-1.2c-0.9-0.8-1.3-1.9-1.3-3.3v-8.1h2.6v8.1
		c0,0.8,0.2,1.5,0.6,1.9s0.9,0.7,1.6,0.7s1.2-0.2,1.6-0.7c0.4-0.4,0.6-1.1,0.6-1.9v-8.1H86z"/>
	
		<linearGradient id="SVGID_14_" gradientUnits="userSpaceOnUse" x1="87.1625" y1="8.5" x2="95.9916" y2="8.5" gradientTransform="matrix(1 0 0 -1 0 34)">
		<stop  offset="0" style="stop-color:#F00000"/>
		<stop  offset="1" style="stop-color:#DC281E"/>
	</linearGradient>
	<path class="st28" d="M96,21.2h-3.2v10.5h-2.6V21.2h-3.1v-1.9H96V21.2z"/>
	
		<linearGradient id="SVGID_15_" gradientUnits="userSpaceOnUse" x1="96.7565" y1="8.45" x2="106.5257" y2="8.45" gradientTransform="matrix(1 0 0 -1 0 34)">
		<stop  offset="0" style="stop-color:#F00000"/>
		<stop  offset="1" style="stop-color:#DC281E"/>
	</linearGradient>
	<path class="st29" d="M106.5,27.3c0,1.5-0.4,2.6-1.3,3.4s-2.1,1.2-3.6,1.2s-2.7-0.4-3.5-1.2c-0.9-0.8-1.3-2-1.3-3.4v-3.5
		c0-1.5,0.4-2.6,1.3-3.4s2.1-1.2,3.5-1.2c1.5,0,2.7,0.4,3.6,1.2c0.9,0.8,1.3,2,1.3,3.4V27.3z M103.9,23.8c0-0.9-0.2-1.6-0.6-2
		c-0.4-0.5-1-0.7-1.7-0.7c-0.8,0-1.3,0.2-1.7,0.7c-0.4,0.5-0.6,1.1-0.6,2v3.5c0,0.9,0.2,1.6,0.6,2.1s1,0.7,1.7,0.7s1.3-0.2,1.7-0.7
		c0.4-0.5,0.6-1.1,0.6-2.1V23.8z"/>
</g>
<g>
	<path class="st30" d="M58.3,16.9L58.3,16.9c-0.4,2.7-1.8,4.5-3.9,5.7c-2.1,1.2-5,1.8-8.5,1.8c-3.5,0-6.1-0.7-8-2.2
		C36,20.7,35.4,18.7,36,16l1.5-6.8c0.6-2.8,2.1-4.9,4.4-6.3c2.3-1.4,5.3-2.1,8.8-2.1c3.5,0,6.2,0.6,7.9,1.9c1.8,1.2,2.3,3.1,1.7,5.6
		l0,0.1H54c0.3-1.5,0.2-2.6-0.4-3.2c-0.6-0.6-1.8-0.8-3.6-0.8c-1.6,0-2.9,0.4-3.9,1.2c-1,0.8-1.7,2.1-2.1,3.7L42.4,16
		c-0.4,1.7-0.2,3,0.5,3.8c0.7,0.8,1.9,1.2,3.7,1.2c1.6,0,2.8-0.3,3.6-0.9c0.9-0.6,1.4-1.6,1.8-3.1H58.3z"/>
	<path class="st30" d="M76.2,19.4h-8.4l-7.9,12.7h-6.8L72.5,1.3h6.7l4.5,23.1H77L76.2,19.4z M69.9,15.9h5.7l-1.2-7.3l-0.1,0
		L69.9,15.9z"/>
	<path class="st30" d="M102.5,18.6c0.2-1,0-1.8-0.7-2.4c-0.7-0.6-2-1.1-3.9-1.8c-3.4-0.9-5.8-1.9-7.4-3.1c-1.6-1.2-2.2-2.7-1.7-4.7
		c0.4-1.8,1.7-3.3,3.8-4.4s4.7-1.6,7.6-1.6c3.3,0,5.8,0.6,7.6,1.9c1.8,1.3,2.5,3,1.9,5.2l-0.1,0.1h-6.3c0.2-1.1,0-2-0.8-2.6
		c-0.7-0.7-1.8-1-3.2-1c-1,0-1.9,0.2-2.7,0.7c-0.8,0.5-1.3,1-1.4,1.7c-0.2,1,0,1.8,0.8,2.3c0.7,0.5,2.3,1.1,4.6,1.8
		c3.1,0.8,5.4,1.8,6.8,3c1.4,1.2,1.9,2.8,1.5,4.8c-0.4,1.9-1.7,3.4-3.8,4.4c-2.1,1-4.6,1.5-7.7,1.5c-3.2,0-5.9-0.6-8.1-1.7
		c-2.2-1.1-3-2.9-2.4-5.3l0-0.1h6.3c-0.3,1.3,0.1,2.3,1.1,2.8c1,0.5,2.3,0.8,3.8,0.8c1,0,1.9-0.2,2.7-0.7
		C101.9,19.8,102.3,19.2,102.5,18.6z"/>
	<polygon class="st30" points="56.5,25.5 53.9,29.5 35.6,29.5 37.3,25.5 	"/>
	<polygon class="st30" points="65,25.5 62.5,29.5 109.3,29.5 107.3,25.5 	"/>
</g>
</svg>
